# xmcd
#
# Track frame offsets: 
#        150
#        15077
#        36643
#        60524
#        87206
#        107346
#        126581
#        142030
#        164093
#        182111
#
# Disc length: 2784 seconds
#
# Revision: 0
# Processed by: cddbd v1.5.2PL0 Copyright (c) Steve Scherf et al.
# Submitted via: ExactAudioCopy v0.99pb4
#
DISCID=870ade0a
DTITLE=Lee 'Shot' Williams - Nibble Man
DYEAR=2004
DGENRE=Blues
TTITLE0=Just Another Hole In The Wall
TTITLE1=Ghetto Party
TTITLE2=You're Slackin' Up In The Bedroom
TTITLE3=Ease On Down In The Bed
TTITLE4=I'm A Nibble Man
TTITLE5=I Gotta Go Home So I Can Get My Freak On
TTITLE6=Party Woman
TTITLE7=Nothing But Party Blues
TTITLE8=That's Really What The Blues Is All About
TTITLE9=Easy On Down In The Bed (Radio Version)
EXTD=
EXTT0=
EXTT1=
EXTT2=
EXTT3=
EXTT4=
EXTT5=
EXTT6=
EXTT7=
EXTT8=
EXTT9=
PLAYORDER=
